<svg xmlns="http://www.w3.org/2000/svg" viewBox="0 0 512 512" width="512" height="512">
  <rect width="512" height="512" rx="80" fill="#FFA800"/>
  <g transform="translate(28, 80) scale(0.34)">
    <path fill="#ffffff" d="M 340.292969 314.230469 C 365.960938 316.175781 390.429688 328.835938 408.296875 347.257812 L 377.347656 377.792969 C 366.277344 369.859375 358.105469 363.355469 344.296875 360.269531 C 298.210938 349.957031 252.226562 382.207031 252.226562 431.320312 L 252.226562 500.375 L 354.300781 500.375 L 354.300781 542.402344 L 252.226562 542.402344 L 252.226562 686.511719 L 210.199219 686.511719 L 210.199219 418.316406 C 217.101562 350.855469 273.742188 309.203125 340.292969 314.238281 Z M 340.292969 314.230469" fill-opacity="1" fill-rule="nonzero"/>
    <path fill="#ffffff" d="M 628.503906 372.273438 L 628.503906 450.328125 C 607.65625 450.765625 581.574219 456.023438 564.457031 468.34375 C 495.03125 518.308594 494.476562 618.695312 566.460938 666.492188 C 592.113281 683.519531 630.6875 685.554688 660.527344 684.5 C 664.519531 684.359375 668.558594 684.617188 672.546875 684.511719 L 672.652344 378.746094 L 672.738281 372.273438 Z M 628.503906 638.46875 C 534.125 635.449219 534.976562 499.621094 628.503906 494.363281 Z M 628.503906 638.46875" fill-opacity="1" fill-rule="nonzero"/>
    <path fill="#ffffff" d="M 472.453125 405.234375 C 472.453125 406.261719 472.402344 407.289062 472.300781 408.3125 C 472.199219 409.335938 472.050781 410.351562 471.851562 411.359375 C 471.648438 412.367188 471.398438 413.363281 471.101562 414.347656 C 470.804688 415.332031 470.457031 416.296875 470.0625 417.246094 C 469.667969 418.195312 469.230469 419.125 468.746094 420.03125 C 468.261719 420.9375 467.734375 421.820312 467.164062 422.675781 C 466.589844 423.53125 465.980469 424.355469 465.328125 425.148438 C 464.675781 425.945312 463.984375 426.703125 463.257812 427.433594 C 462.53125 428.160156 461.769531 428.847656 460.976562 429.5 C 460.179688 430.152344 459.355469 430.765625 458.5 431.335938 C 457.644531 431.90625 456.765625 432.433594 455.859375 432.917969 C 454.953125 433.40625 454.023438 433.84375 453.074219 434.238281 C 452.125 434.628906 451.15625 434.976562 450.171875 435.273438 C 449.1875 435.574219 448.191406 435.824219 447.183594 436.023438 C 446.175781 436.222656 445.160156 436.375 444.136719 436.476562 C 443.113281 436.574219 442.089844 436.625 441.058594 436.625 C 440.03125 436.625 439.007812 436.574219 437.984375 436.476562 C 436.960938 436.375 435.945312 436.222656 434.9375 436.023438 C 433.925781 435.824219 432.929688 435.574219 431.949219 435.273438 C 430.964844 434.976562 429.996094 434.628906 429.046875 434.238281 C 428.097656 433.84375 427.167969 433.40625 426.261719 432.917969 C 425.355469 432.433594 424.472656 431.90625 423.621094 431.335938 C 422.765625 430.765625 421.941406 430.152344 421.144531 429.5 C 420.351562 428.847656 419.589844 428.160156 418.863281 427.433594 C 418.136719 426.703125 417.445312 425.945312 416.792969 425.148438 C 416.140625 424.355469 415.53125 423.53125 414.957031 422.675781 C 414.386719 421.820312 413.859375 420.9375 413.375 420.03125 C 412.890625 419.125 412.449219 418.195312 412.058594 417.246094 C 411.664062 416.296875 411.316406 415.332031 411.019531 414.347656 C 410.722656 413.363281 410.472656 412.367188 410.269531 411.359375 C 410.070312 410.351562 409.917969 409.335938 409.820312 408.3125 C 409.71875 407.289062 409.667969 406.261719 409.667969 405.234375 C 409.667969 404.207031 409.71875 403.179688 409.820312 402.15625 C 409.917969 401.132812 410.070312 400.117188 410.269531 399.109375 C 410.472656 398.101562 410.722656 397.105469 411.019531 396.121094 C 411.316406 395.136719 411.664062 394.171875 412.058594 393.21875 C 412.449219 392.269531 412.890625 391.34375 413.375 390.433594 C 413.859375 389.527344 414.386719 388.648438 414.957031 387.792969 C 415.53125 386.9375 416.140625 386.113281 416.792969 385.320312 C 417.445312 384.523438 418.136719 383.761719 418.863281 383.035156 C 419.589844 382.308594 420.351562 381.621094 421.144531 380.96875 C 421.941406 380.316406 422.765625 379.703125 423.621094 379.132812 C 424.472656 378.5625 425.355469 378.03125 426.261719 377.546875 C 427.167969 377.0625 428.097656 376.625 429.046875 376.230469 C 429.996094 375.835938 430.964844 375.492188 431.949219 375.191406 C 432.929688 374.894531 433.925781 374.644531 434.9375 374.445312 C 435.945312 374.242188 436.960938 374.09375 437.984375 373.992188 C 439.007812 373.890625 440.03125 373.839844 441.058594 373.839844 C 442.089844 373.839844 443.113281 373.890625 444.136719 373.992188 C 445.160156 374.09375 446.175781 374.242188 447.183594 374.445312 C 448.191406 374.644531 449.1875 374.894531 450.171875 375.191406 C 451.15625 375.492188 452.125 375.835938 453.074219 376.230469 C 454.023438 376.625 454.953125 377.0625 455.859375 377.546875 C 456.765625 378.03125 457.644531 378.5625 458.5 379.132812 C 459.355469 379.703125 460.179688 380.316406 460.976562 380.96875 C 461.769531 381.621094 462.53125 382.308594 463.257812 383.035156 C 463.984375 383.761719 464.675781 384.523438 465.328125 385.320312 C 465.980469 386.113281 466.589844 386.9375 467.164062 387.792969 C 467.734375 388.648438 468.261719 389.527344 468.746094 390.433594 C 469.230469 391.34375 469.667969 392.269531 470.0625 393.21875 C 470.457031 394.171875 470.804688 395.136719 471.101562 396.121094 C 471.398438 397.105469 471.648438 398.101562 471.851562 399.109375 C 472.050781 400.117188 472.199219 401.132812 472.300781 402.15625 C 472.402344 403.179688 472.453125 404.207031 472.453125 405.234375 Z M 472.453125 405.234375" fill-opacity="1" fill-rule="nonzero"/>
    <path fill="#ffffff" d="M 420.042969 472.347656 L 462.074219 472.347656 L 462.074219 684.5 L 420.042969 684.5 Z M 420.042969 472.347656" fill-opacity="1" fill-rule="nonzero"/>
    <g fill="#ffffff" fill-opacity="1"><g transform="translate(706.621663, 684.317707)"><g><path d="M 222.15625 -100.421875 C 222.15625 -97.128906 221.898438 -92.441406 221.390625 -86.359375 L 62 -86.359375 C 64.789062 -71.390625 72.082031 -59.53125 83.875 -50.78125 C 95.664062 -42.03125 110.3125 -37.65625 127.8125 -37.65625 C 150.132812 -37.65625 168.519531 -45.007812 182.96875 -59.71875 L 208.46875 -30.4375 C 199.332031 -19.53125 187.789062 -11.285156 173.84375 -5.703125 C 159.894531 -0.128906 144.171875 2.65625 126.671875 2.65625 C 104.359375 2.65625 84.703125 -1.78125 67.703125 -10.65625 C 50.710938 -19.53125 37.585938 -31.890625 28.328125 -47.734375 C 19.078125 -63.585938 14.453125 -81.53125 14.453125 -101.5625 C 14.453125 -121.34375 18.953125 -139.160156 27.953125 -155.015625 C 36.960938 -170.867188 49.453125 -183.234375 65.421875 -192.109375 C 81.398438 -200.984375 99.410156 -205.421875 119.453125 -205.421875 C 139.234375 -205.421875 156.921875 -201.046875 172.515625 -192.296875 C 188.109375 -183.546875 200.28125 -171.242188 209.03125 -155.390625 C 217.78125 -139.546875 222.15625 -121.222656 222.15625 -100.421875 Z M 119.453125 -167.375 C 104.234375 -167.375 91.359375 -162.875 80.828125 -153.875 C 70.304688 -144.875 63.90625 -132.890625 61.625 -117.921875 L 176.890625 -117.921875 C 174.859375 -132.628906 168.644531 -144.546875 158.25 -153.671875 C 147.851562 -162.804688 134.921875 -167.375 119.453125 -167.375 Z M 119.453125 -167.375"/></g></g></g>
    <g fill="#ffffff" fill-opacity="1"><g transform="translate(963.391589, 684.317707)"><g><path d="M 222.15625 -100.421875 C 222.15625 -97.128906 221.898438 -92.441406 221.390625 -86.359375 L 62 -86.359375 C 64.789062 -71.390625 72.082031 -59.53125 83.875 -50.78125 C 95.664062 -42.03125 110.3125 -37.65625 127.8125 -37.65625 C 150.132812 -37.65625 168.519531 -45.007812 182.96875 -59.71875 L 208.46875 -30.4375 C 199.332031 -19.53125 187.789062 -11.285156 173.84375 -5.703125 C 159.894531 -0.128906 144.171875 2.65625 126.671875 2.65625 C 104.359375 2.65625 84.703125 -1.78125 67.703125 -10.65625 C 50.710938 -19.53125 37.585938 -31.890625 28.328125 -47.734375 C 19.078125 -63.585938 14.453125 -81.53125 14.453125 -101.5625 C 14.453125 -121.34375 18.953125 -139.160156 27.953125 -155.015625 C 36.960938 -170.867188 49.453125 -183.234375 65.421875 -192.109375 C 81.398438 -200.984375 99.410156 -205.421875 119.453125 -205.421875 C 139.234375 -205.421875 156.921875 -201.046875 172.515625 -192.296875 C 188.109375 -183.546875 200.28125 -171.242188 209.03125 -155.390625 C 217.78125 -139.546875 222.15625 -121.222656 222.15625 -100.421875 Z M 119.453125 -167.375 C 104.234375 -167.375 91.359375 -162.875 80.828125 -153.875 C 70.304688 -144.875 63.90625 -132.890625 61.625 -117.921875 L 176.890625 -117.921875 C 174.859375 -132.628906 168.644531 -144.546875 158.25 -153.671875 C 147.851562 -162.804688 134.921875 -167.375 119.453125 -167.375 Z M 119.453125 -167.375"/></g></g></g>
  </g>
</svg>
