<?xml version="1.0" encoding="UTF-8"?>
<svg id="Calque_1" xmlns="http://www.w3.org/2000/svg" version="1.1" viewBox="0 0 2000 2000">
  <!-- Generator: Adobe Illustrator 29.6.1, SVG Export Plug-In . SVG Version: 2.1.1 Build 9)  -->
  <defs>
    <style>
      .st0 {
        fill: #fff;
      }
    </style>
  </defs>
  <path class="st0" d="M679.23,627.21c51.23,3.88,100.07,29.15,135.73,65.92l-61.77,60.95c-22.1-15.84-38.41-28.82-65.97-34.98-91.99-20.58-183.77,43.79-183.77,141.82v137.83h203.74v83.89h-203.74v287.64h-83.89v-535.32c13.78-134.65,126.83-217.79,259.67-207.74Z"/>
  <path class="st0" d="M1254.5,743.06v155.8c-41.61.87-93.67,11.37-127.84,35.96-138.57,99.73-139.68,300.1,4,395.5,51.2,33.99,128.2,38.05,187.76,35.95,7.97-.28,16.03.23,23.99.02l.21-610.31.17-12.92h-88.29ZM1254.5,1274.39c-188.38-6.03-186.68-277.14,0-287.64v287.64Z"/>
  <circle class="st0" cx="1517.78" cy="808.85" r="62.66"/>
  <circle class="st0" cx="880.36" cy="808.85" r="62.66"/>
  <rect class="st0" x="1478.22" y="942.81" width="83.89" height="423.46"/>
  <rect class="st0" x="838.41" y="942.81" width="83.89" height="423.46"/>
</svg>